<?xml version="1.0" encoding="iso-8859-1"?>
<!-- Generator: Adobe Illustrator 19.0.0, SVG Export Plug-In . SVG Version: 6.00 Build 0)  -->
<svg version="1.1" id="Capa_1" xmlns="http://www.w3.org/2000/svg" xmlns:xlink="http://www.w3.org/1999/xlink" x="0px" y="0px"
	 viewBox="0 0 480.087 480.087" style="enable-background:new 0 0 480.087 480.087;" xml:space="preserve">
<g>
	<g>
		<path d="M377.114,329.846c-0.992-9.631-7.69-17.715-16.968-20.48l-1.416-0.424c10.135-6.401,18.525-15.216,24.416-25.656
			c9.889-17.395,11.991-38.151,5.792-57.176L351.97,110.598C351.231,48.782,300.52-0.731,238.704,0.008
			c-60.774,0.726-109.864,49.816-110.59,110.59L91.146,226.142c-6.152,18.903-4.122,39.517,5.6,56.856
			c5.903,10.562,14.351,19.483,24.576,25.952l-1.384,0.416c-9.279,2.761-15.98,10.842-16.976,20.472l-14.88,141.448
			c-0.442,4.396,2.764,8.318,7.16,8.76c0.266,0.027,0.533,0.04,0.8,0.04h288c4.418,0.022,8.018-3.542,8.04-7.96
			c0.001-0.281-0.012-0.561-0.04-0.84L377.114,329.846z M361.202,331.51l1.376,13.088c-0.811-0.309-1.668-0.482-2.536-0.512h-16
			v-22.848l11.504,3.456C358.631,325.62,360.861,328.307,361.202,331.51z M373.698,230.998c4.823,14.788,3.194,30.923-4.488,44.448
			c-7.297,12.96-19.439,22.495-33.76,26.512l-39.408-11.824v-45.488c0.696-0.544,1.416-1.024,2.104-1.6
			c27.2-22.64,41.712-72.36,45.104-107.2L373.698,230.998z M144.042,112.086c0-53.019,42.981-96,96-96s96,42.981,96,96h-24
			c-22.08-0.026-39.974-17.92-40-40c-0.001-4.418-3.583-7.999-8.001-7.999c-0.583,0-1.165,0.064-1.735,0.191l-4.8,1.072
			c-40.376,8.916-78.812,25.041-113.464,47.6V112.086z M110.73,275.214c-7.556-13.48-9.131-29.506-4.344-44.2l30.4-95.048h0.128
			c3.456,34.56,18.176,84.736,45.008,107.104c0.688,0.568,1.408,1.048,2.104,1.6v45.488l-39.424,11.824
			C130.196,297.927,118.005,288.292,110.73,275.214z M160.042,376.086c0,8.837-7.163,16-16,16s-16-7.163-16-16s7.163-16,16-16
			S160.042,367.25,160.042,376.086z M118.882,331.526c0.323-3.217,2.563-5.918,5.664-6.832l11.496-3.456v24
			c-8.774,2.293-16.16,8.209-20.312,16.272L118.882,331.526z M184.042,464.086H104.93l8.416-79.584
			c4.605,17.021,22.137,27.086,39.159,22.481c17.021-4.605,27.086-22.137,22.481-39.159c-3.009-11.122-11.778-19.76-22.944-22.603
			v-28.8l32-9.6V464.086z M280.042,464.086h-80V357.854l40-13.336l40,13.336V464.086z M200.042,341.03v-16l19.144,9.6
			L200.042,341.03z M280.042,340.982l-19.144-6.4l19.144-9.552V340.982z M280.042,307.142l-40,20l-40-20v-52.416
			c25.204,12.491,54.796,12.491,80,0V307.142z M287.898,230.758c-27.718,23.112-67.994,23.112-95.712,0
			c-24.408-20.344-38.4-71.832-39.896-104c31.993-20.913,67.395-36.074,104.608-44.8c4.821,26.68,28.031,46.096,55.144,46.128h15.8
			C325.93,163.79,310.066,212.286,287.898,230.758z M296.042,464.086V306.838l32,9.6v27.648h-16c-4.418,0-8,3.582-8,8v48
			c0,4.418,3.582,8,8,8h16v-16h-8v-32h32v32h-8v16h16c4.418,0,8-3.582,8-8v-3.568l7.112,67.568H296.042z"/>
	</g>
</g>
<g>
</g>
<g>
</g>
<g>
</g>
<g>
</g>
<g>
</g>
<g>
</g>
<g>
</g>
<g>
</g>
<g>
</g>
<g>
</g>
<g>
</g>
<g>
</g>
<g>
</g>
<g>
</g>
<g>
</g>
</svg>
